<svg width="119" height="31" viewBox="0 0 119 31" version="1.1" xmlns="http://www.w3.org/2000/svg"><title>palantir-logo</title><desc>Created with Sketch.</desc><g fill="#fff" stroke="none" stroke-width="1" fill-rule="evenodd"><g><path d="M29.048 4.07h7.398c2.693 0 4.525.168 6.04 1.858 1.11 1.19 1.63 2.762 1.63 4.5 0 1.762-.543 3.286-1.742 4.548-1.177 1.214-2.692 2-6.674 2h-3.575V27.31H29.07V4.07h-.022zm-25.903 6.097h3.642c2.036 0 5.113-.167 5.113-3.953 0-3.643-2.873-3.643-4.48-3.643H3.146v7.597z"/><path d="M54.025 27.333c-.226-.81-.272-1.57-.272-2.428-1.38 2.666-3.46 2.928-4.75 2.928-3.53 0-5.408-2.095-5.408-4.762 0-1.285.43-3.356 2.693-4.737 1.65-.976 4.095-1.07 5.316-1.07.724 0 1.2.022 2.082.094 0-2 0-2.88-.543-3.572-.59-.81-1.833-1.07-2.67-1.07-2.896 0-3.054 2.094-3.1 2.737H44.5c.09-.833.18-1.976 1.064-3.07 1.176-1.358 3.348-1.74 4.954-1.74 2.24 0 4.615.74 5.453 2.382.498.976.52 1.738.52 2.476l-.112 7.738c0 .262.022 2.428.25 4.047h-2.603v.048zm-30.95-12.07c-1.153 0-5.542 0-5.542 3.285 0 1.023.61 2.81 3.19 2.81 1.47 0 2.58-.62 3.28-1.74.634-1.094.68-2 .725-4.26-.52-.048-.95-.096-1.652-.096z" id="a"/><path d="M59.047 4.07h2.874v23.263h-2.873V4.07z"/><path d="M74.318 27.333c-.203-.81-.27-1.57-.27-2.428-1.38 2.666-3.463 2.928-4.752 2.928-3.53 0-5.43-2.095-5.43-4.762 0-1.285.43-3.356 2.692-4.737 1.652-.976 4.095-1.07 5.317-1.07.724 0 1.2.022 2.08.094 0-2 0-2.88-.542-3.572-.588-.81-1.832-1.07-2.67-1.07-2.918 0-3.053 2.094-3.1 2.737h-2.872c.092-.833.182-1.976 1.064-3.07 1.154-1.358 3.35-1.74 4.955-1.74 2.24 0 4.614.74 5.45 2.382.5.976.522 1.738.522 2.476l-.114 7.738c0 .262.023 2.428.25 4.047h-2.58v.048zm-30.97-12.07c-1.155 0-5.544 0-5.544 3.285 0 1.023.61 2.81 3.19 2.81 1.47 0 2.58-.62 3.28-1.74.634-1.094.68-2 .724-4.26-.497-.048-.927-.096-1.65-.096z"/><path d="M79.363 13.024l-.022-1.88h2.874l.023 2.618c.34-.667 1.425-2.93 4.93-2.93 1.38 0 5.567.55 5.567 5.5V27.31h-2.94V17.023c0-1.072-.114-2.024-.838-2.762-.747-.738-1.742-1.096-2.715-1.096-2.08 0-4.003 1.572-4.003 4.834v9.31h-2.874V13.023z"/><path d="M96.354 11.143V7.69l2.85-.976v4.405h3.44v2.213h-3.44v9.643c0 .81 0 2.167 2.06 2.167.587 0 1.13-.096 1.38-.167v2.357c-.52.095-1.358.19-2.4.19-2.623 0-3.89-.81-3.89-3.452V13.38H93.64v-2.237h2.714z"/><path d="M96.354 11.143V7.69l2.85-.976v4.405h3.44v2.213h-3.44v9.643c0 .81 0 2.167 2.06 2.167.587 0 1.13-.096 1.38-.167v2.357c-.52.095-1.358.19-2.4.19-2.623 0-3.89-.81-3.89-3.452V13.38H93.64v-2.237h2.714z"/><path d="M104.656 4.07h3.462v3.382h-3.462v-3.38zm-28.64 2.978h2.872v16.166h-2.873V7.048z"/><path d="M110.516 14.428c0-1.095-.068-2.214-.158-3.285h2.918l.068 3.12c.543-2.263 2.398-3 3.665-3.192.86-.118 1.492-.094 1.99-.07v2.952c-.16-.07-.34-.095-.543-.12-.204-.023-.498-.023-.837-.023-3.394 0-4.208 2.118-4.208 4.904v8.595h-2.896V14.427z"/></g><g><path d="M11.86.952C5.596.952.5 6.024.5 12.31c0 6.285 5.073 11.357 11.36 11.357 6.263 0 11.36-5.072 11.36-11.357C23.22 6.024 18.122.952 11.86.952zm0 18.215C7.525 19.167 4 15.643 4 11.31c0-4.334 3.525-7.858 7.86-7.858 4.334 0 7.858 3.524 7.858 7.858-.024 4.357-3.524 7.857-7.858 7.857zM22.004 22.667l-10.144 4.38-10.17-4.38-1.666 3.238 11.836 5.047 11.835-5.047-1.69-3.238z"/></g></g></svg>