<svg width="531" height="64" viewBox="0 0 531 64" version="1.1" xmlns="http://www.w3.org/2000/svg"><title>plots</title><desc>Created with Sketch.</desc><g stroke="none" stroke-width="1" fill="none" fill-rule="evenodd"><g transform="translate(1 4.389)"><path d="M10.986 43.208l24.517-24.58M46.478 19.486l18.667 18.716M103.11 10.154l-27.9 27.97" stroke="#fff" stroke-linecap="square"/><ellipse stroke="#009CDE" fill="#fff" cx="5.915" cy="48.292" rx="5.915" ry="5.931"/><ellipse stroke="#009CDE" fill="#fff" cx="41.407" cy="16.097" rx="5.915" ry="5.931"/><ellipse stroke="#009CDE" fill="#fff" cx="70.139" cy="41.514" rx="5.915" ry="5.931"/><path d="M107.32 11.86c3.268 0 5.916-2.654 5.916-5.93 0-3.275-2.648-5.93-5.915-5.93-3.266 0-5.914 2.655-5.914 5.93 0 3.276 2.648 5.93 5.915 5.93z" stroke="#009CDE" fill="#fff"/></g><g><path d="M190.223 55.328V27.402h57.542V7.294h77.202V54.69l-134.744.638z" id="Path-29" stroke="#fff"/><path d="M189.445 33.194c3.267 0 5.916-2.655 5.916-5.93s-2.648-5.93-5.915-5.93-5.915 2.655-5.915 5.93 2.648 5.93 5.915 5.93z" stroke="#009CDE" fill="#fff"/><path d="M246.91 33.194c3.266 0 5.914-2.655 5.914-5.93s-2.648-5.93-5.915-5.93c-3.268 0-5.917 2.655-5.917 5.93s2.65 5.93 5.916 5.93z" stroke="#009CDE" fill="#fff"/><path d="M246.91 12.86c3.266 0 5.914-2.654 5.914-5.93 0-3.275-2.648-5.93-5.915-5.93-3.268 0-5.917 2.655-5.917 5.93 0 3.276 2.65 5.93 5.916 5.93z" id="Oval-8" stroke="#009CDE" fill="#fff"/><path d="M324.653 12.86c3.267 0 5.915-2.654 5.915-5.93 0-3.275-2.648-5.93-5.915-5.93s-5.915 2.655-5.915 5.93c0 3.276 2.648 5.93 5.915 5.93z" id="Oval-9" stroke="#009CDE" fill="#fff"/><path d="M324.653 62c3.267 0 5.915-2.655 5.915-5.93 0-3.276-2.648-5.93-5.915-5.93s-5.915 2.654-5.915 5.93c0 3.275 2.648 5.93 5.915 5.93z" id="Oval-10" stroke="#009CDE" fill="#fff"/><path d="M189.445 62c3.267 0 5.916-2.655 5.916-5.93 0-3.276-2.648-5.93-5.915-5.93s-5.915 2.654-5.915 5.93c0 3.275 2.648 5.93 5.915 5.93z" id="Oval-6" stroke="#009CDE" fill="#fff"/></g><g><path d="M459.006 55.328V7.294h20.21V54.69l-20.21.638z" stroke="#fff"/><path d="M458.17 12.86c3.268 0 5.916-2.654 5.916-5.93 0-3.275-2.648-5.93-5.915-5.93-3.266 0-5.915 2.655-5.915 5.93 0 3.276 2.65 5.93 5.916 5.93z" stroke="#009CDE" fill="#fff"/><path d="M478.452 12.86c3.267 0 5.915-2.654 5.915-5.93 0-3.275-2.648-5.93-5.915-5.93s-5.915 2.655-5.915 5.93c0 3.276 2.648 5.93 5.915 5.93z" stroke="#009CDE" fill="#fff"/><path d="M478.452 62c3.267 0 5.915-2.655 5.915-5.93 0-3.276-2.648-5.93-5.915-5.93s-5.915 2.654-5.915 5.93c0 3.275 2.648 5.93 5.915 5.93z" stroke="#009CDE" fill="#fff"/><path d="M458.17 62c3.268 0 5.916-2.655 5.916-5.93 0-3.276-2.648-5.93-5.915-5.93-3.266 0-5.915 2.654-5.915 5.93 0 3.275 2.65 5.93 5.916 5.93z" stroke="#009CDE" fill="#fff"/><path d="M504.638 55.275V31.258h20.212v23.698l-20.212.32z" stroke="#fff"/><path d="M503.803 38.278c3.267 0 5.916-2.655 5.916-5.93 0-3.276-2.65-5.93-5.917-5.93s-5.915 2.654-5.915 5.93c0 3.275 2.648 5.93 5.915 5.93z" stroke="#009CDE" fill="#fff"/><path d="M524.085 38.278c3.267 0 5.915-2.655 5.915-5.93 0-3.276-2.648-5.93-5.915-5.93s-5.916 2.654-5.916 5.93c0 3.275 2.648 5.93 5.915 5.93z" stroke="#009CDE" fill="#fff"/><path d="M524.085 62c3.267 0 5.915-2.655 5.915-5.93 0-3.276-2.648-5.93-5.915-5.93s-5.916 2.654-5.916 5.93c0 3.275 2.648 5.93 5.915 5.93z" stroke="#009CDE" fill="#fff"/><path d="M503.803 62c3.267 0 5.916-2.655 5.916-5.93 0-3.276-2.65-5.93-5.917-5.93s-5.915 2.654-5.915 5.93c0 3.275 2.648 5.93 5.915 5.93z" stroke="#009CDE" fill="#fff"/><path d="M415.063 56.985v-30.88h20.212v30.47l-20.212.41z" stroke="#fff"/><path d="M414.228 31.5c3.267 0 5.916-2.655 5.916-5.93 0-3.276-2.65-5.93-5.916-5.93-3.267 0-5.915 2.654-5.915 5.93 0 3.275 2.648 5.93 5.915 5.93z" stroke="#009CDE" fill="#fff"/><path d="M434.51 31.5c3.266 0 5.915-2.655 5.915-5.93 0-3.276-2.65-5.93-5.916-5.93-3.267 0-5.916 2.654-5.916 5.93 0 3.275 2.65 5.93 5.915 5.93z" stroke="#009CDE" fill="#fff"/><path d="M434.51 62c3.266 0 5.915-2.655 5.915-5.93 0-3.276-2.65-5.93-5.916-5.93-3.267 0-5.916 2.654-5.916 5.93 0 3.275 2.65 5.93 5.915 5.93z" stroke="#009CDE" fill="#fff"/><path d="M414.228 62c3.267 0 5.916-2.655 5.916-5.93 0-3.276-2.65-5.93-5.916-5.93-3.267 0-5.915 2.654-5.915 5.93 0 3.275 2.648 5.93 5.915 5.93z" stroke="#009CDE" fill="#fff"/></g></g></svg>